<svg xmlns="http://www.w3.org/2000/svg" width="61.131" height="56.456" viewBox="0 0 61.131 56.456"><defs><style>.a{fill:#93c353;stroke:#fff;}</style></defs><g transform="translate(0.501 0.538)"><path class="a" d="M62.341,52.359a1.2,1.2,0,0,0-1.557-.264,8.961,8.961,0,0,1-1.2.671,1.354,1.354,0,0,0-.18-.252A36.5,36.5,0,0,0,39.782,41.733a65.974,65.974,0,0,0-3.762-22.762L48.348,32.149a1.2,1.2,0,0,0,2.073-.731,17.886,17.886,0,0,0-8.122-16.3l11.645.647A1.2,1.2,0,0,0,55,13.879a14.244,14.244,0,0,0-11.98-6.889A13.753,13.753,0,0,0,33.349,10.7,12.447,12.447,0,0,0,17.775,1.48a1.2,1.2,0,0,0-.431,2.12l9.488,7.116a13.537,13.537,0,0,0-5.439.934,13.765,13.765,0,0,0-8.063,8.59,1.2,1.2,0,0,0,1.581,1.486l9.165-3.666a16.772,16.772,0,0,0-2.4,16.089,1.2,1.2,0,0,0,2.228.156l7.739-16.437a62.871,62.871,0,0,1-2.791,23.289A36.527,36.527,0,0,0,5.723,52.335a9.967,9.967,0,0,1-1.27-.875,1.2,1.2,0,1,0-1.509,1.869,12.974,12.974,0,0,0,15.43.563,12.962,12.962,0,0,0,14.664,0,12.974,12.974,0,0,0,14.676,0,12.974,12.974,0,0,0,14.376.24,1.2,1.2,0,0,0,.252-1.773ZM44.251,20.013a15.43,15.43,0,0,1,3.7,8.278L35.518,14.957A15.346,15.346,0,0,1,44.251,20Zm-1.2-10.554a11.645,11.645,0,0,1,8.47,3.834l-16.473-.91a11.465,11.465,0,0,1,7.991-2.935ZM27.4,5.517a9.872,9.872,0,0,1,3.5,5.247L21.07,3.4A9.908,9.908,0,0,1,27.4,5.517ZM22.28,13.9A11.273,11.273,0,0,1,29.2,13.46L16.829,18.384a11.381,11.381,0,0,1,5.439-4.5ZM23.2,30.292a14.472,14.472,0,0,1,6.769-14.376Zm11.046-9.153a63.363,63.363,0,0,1,3.175,20.174,37.584,37.584,0,0,0-4.948-.335H31.48a65.232,65.232,0,0,0,2.767-19.839Zm14.22,30.31a1.2,1.2,0,0,0-1.486,0,10.542,10.542,0,0,1-13.178,0,1.2,1.2,0,0,0-1.509,0,10.554,10.554,0,0,1-13.178,0,1.2,1.2,0,0,0-1.5,0,10.566,10.566,0,0,1-9.524,1.9,34.263,34.263,0,0,1,24.332-9.979,34.251,34.251,0,0,1,24.583,10.2,10.566,10.566,0,0,1-8.566-2.12Z" transform="translate(-2.497 -0.997)"/></g></svg>